HIERARCHY
ROOT joint_Root
{
	OFFSET 0.0 0.0 0.0
	CHANNELS 6 Xposition Yposition Zposition Zrotation Xrotation Yrotation 
	JOINT Hips
	{
		OFFSET -17.1583 93.1646 452.98
		CHANNELS 6 Xposition Yposition Zposition Zrotation Xrotation Yrotation 
		JOINT Spine
		{
			OFFSET 15.7357 0.0 0.0
			CHANNELS 6 Xposition Yposition Zposition Zrotation Xrotation Yrotation 
			JOINT Chest
			{
				OFFSET 8.98455 -0.406207 0.0
				CHANNELS 6 Xposition Yposition Zposition Zrotation Xrotation Yrotation 
				JOINT Neck
				{
					OFFSET 16.3773 0.0 0.0
					CHANNELS 6 Xposition Yposition Zposition Zrotation Xrotation Yrotation 
					JOINT Head
					{
						OFFSET 6.45672 0.0 0.0
						CHANNELS 6 Xposition Yposition Zposition Zrotation Xrotation Yrotation 
						End Site
						{
							OFFSET 0.0 0.0 0.0
						}
					}
				}
				JOINT Shoulder_L
				{
					OFFSET 12.9942 -0.242716 4.98039
					CHANNELS 6 Xposition Yposition Zposition Zrotation Xrotation Yrotation 
					JOINT UpperArm_L
					{
						OFFSET 5.34809 0.0 0.0
						CHANNELS 6 Xposition Yposition Zposition Zrotation Xrotation Yrotation 
						JOINT LowerArm_L
						{
							OFFSET 24.3286 1.87007e-05 0.0
							CHANNELS 6 Xposition Yposition Zposition Zrotation Xrotation Yrotation 
							JOINT Hand_L
							{
								OFFSET 22.2916 0.0 0.0
								CHANNELS 6 Xposition Yposition Zposition Zrotation Xrotation Yrotation 
								End Site
								{
									OFFSET 0.0 0.0 0.0
								}
							}
						}
					}
				}
				JOINT Shoulder_R
				{
					OFFSET 12.9945 -0.242716 -4.98039
					CHANNELS 6 Xposition Yposition Zposition Zrotation Xrotation Yrotation 
					JOINT UpperArm_R
					{
						OFFSET -5.34813 0.0 0.0
						CHANNELS 6 Xposition Yposition Zposition Zrotation Xrotation Yrotation 
						JOINT LowerArm_R
						{
							OFFSET -24.3289 0.000322201 0.0
							CHANNELS 6 Xposition Yposition Zposition Zrotation Xrotation Yrotation 
							JOINT Hand_R
							{
								OFFSET -22.2915 -0.000108084 0.0
								CHANNELS 6 Xposition Yposition Zposition Zrotation Xrotation Yrotation 
								End Site
								{
									OFFSET 0.0 0.0 0.0
								}
							}
						}
					}
				}
			}
		}
		JOINT UpperLeg_L
		{
			OFFSET -2.19248 -6.46944 0.0
			CHANNELS 6 Xposition Yposition Zposition Zrotation Xrotation Yrotation 
			JOINT LowerLeg_L
			{
				OFFSET 39.0811 0.0 -1.23785e-05
				CHANNELS 6 Xposition Yposition Zposition Zrotation Xrotation Yrotation 
				JOINT Foot_L
				{
					OFFSET 40.9854 0.0 -1.26872e-05
					CHANNELS 6 Xposition Yposition Zposition Zrotation Xrotation Yrotation 
					JOINT Toes_L
					{
						OFFSET 11.7543 0.0 0.0
						CHANNELS 6 Xposition Yposition Zposition Zrotation Xrotation Yrotation 
						End Site
						{
							OFFSET 0.0 0.0 0.0
						}
					}
				}
			}
		}
		JOINT UpperLeg_R
		{
			OFFSET -2.19251 6.46944 0.0
			CHANNELS 6 Xposition Yposition Zposition Zrotation Xrotation Yrotation 
			JOINT LowerLeg_R
			{
				OFFSET -39.0811 -0.00228153 -0.0401928
				CHANNELS 6 Xposition Yposition Zposition Zrotation Xrotation Yrotation 
				JOINT Foot_R
				{
					OFFSET -40.9854 0.0 0.0
					CHANNELS 6 Xposition Yposition Zposition Zrotation Xrotation Yrotation 
					JOINT Toes_R
					{
						OFFSET -11.7543 0.0 0.0
						CHANNELS 6 Xposition Yposition Zposition Zrotation Xrotation Yrotation 
						End Site
						{
							OFFSET 0.0 0.0 0.0
						}
					}
				}
			}
		}
	}
}
MOTION
Frames:	4
Frame Time:	0.0333333
0.000000 0.000000 0.000000 0.000000 0.000000 -0.000000 -0.317749 93.390200 0.041762 89.749500 2.454550 -1.224820 15.735700 0.000005 -0.000001 77.022200 87.163200 -67.945300 8.984550 -0.406207 -0.000000 -2.010810 -2.044490 18.117600 16.377300 -0.000001 -0.000001 -3.742230 2.786060 5.677370 6.456720 -0.000001 -0.000000 -5.606380 2.002700 8.909910 12.994200 -0.242716 4.980390 -86.885200 -6.771770 -65.226900 5.348090 -0.000007 -0.000001 -24.905400 -54.923600 -52.621100 24.328600 0.000019 0.000005 0.258773 21.446200 -0.707576 22.291600 -0.000001 0.000005 49.655100 4.239080 20.723200 12.994500 -0.242716 -4.980390 89.386900 2.170580 -74.223300 -5.348130 -0.000001 -0.000004 -58.574800 1.272190 -6.348100 -24.328900 0.000322 -0.000009 2.174860 7.816180 -15.609500 -22.291500 -0.000108 -0.000004 9.367600 5.222780 2.141380 -2.192480 -6.469440 -0.000000 -174.881000 -6.601520 -0.792210 39.081100 -0.000007 -0.000012 0.005772 -0.031175 10.490600 40.985400 -0.000006 -0.000013 -2.781230 16.263000 -66.154900 11.754300 -0.000000 0.000003 -0.000282 0.172243 -9.590470 -2.192510 6.469440 -0.000001 175.512000 6.248000 -178.793000 -39.081100 -0.002282 -0.040193 0.007657 -0.028093 8.733350 -40.985400 0.000008 0.000006 -7.532510 3.891030 -66.288500 -11.754300 -0.000006 -0.000006 -0.010414 0.274375 -5.425390
0.000000 0.000000 0.000000 0.000000 0.000000 -0.000000 -0.309021 93.389600 0.067051 89.737200 2.420080 -1.226920 15.735700 0.000005 -0.000001 76.830000 87.160300 -67.767500 8.984550 -0.406207 -0.000000 -2.008490 -2.062950 18.088400 16.377300 -0.000001 -0.000001 -3.774310 2.893010 5.579280 6.456720 -0.000001 -0.000000 -5.555180 2.196780 8.742400 12.994200 -0.242716 4.980390 -86.909700 -6.717880 -65.225700 5.348090 -0.000007 -0.000001 -24.598400 -54.811100 -52.270600 24.328600 0.000019 0.000005 0.270206 21.321700 -0.742954 22.291600 -0.000001 0.000005 49.412600 4.247880 20.589700 12.994500 -0.242716 -4.980390 89.378400 2.197470 -74.202200 -5.348130 -0.000001 -0.000004 -58.831500 1.488210 -6.025590 -24.328900 0.000322 -0.000009 2.222280 7.753660 -16.054100 -22.291500 -0.000108 -0.000004 9.290270 5.223660 2.118820 -2.192480 -6.469440 -0.000000 -174.882000 -6.496940 -0.765615 39.081100 -0.000007 -0.000012 0.005695 -0.030801 10.477300 40.985400 -0.000006 -0.000013 -2.780530 16.121600 -66.172100 11.754300 -0.000000 0.000003 -0.000222 0.171284 -9.629420 -2.192510 6.469440 -0.000001 175.501000 6.252540 -178.731000 -39.081100 -0.002282 -0.040193 0.007274 -0.025920 8.627050 -40.985400 0.000008 0.000006 -7.577100 3.962440 -66.193800 -11.754300 -0.000006 -0.000006 -0.009904 0.270589 -5.580250
0.000000 0.000000 0.000000 0.000000 0.000000 -0.000000 -0.277574 93.395900 0.083919 89.729300 2.342270 -1.305880 15.735700 0.000005 -0.000001 76.840400 87.181700 -67.795100 8.984550 -0.406207 -0.000000 -2.051220 -2.054120 18.053500 16.377300 -0.000001 -0.000001 -3.813990 3.051440 5.440440 6.456720 -0.000001 -0.000000 -5.644560 2.386450 8.662770 12.994200 -0.242716 4.980390 -86.919700 -6.688910 -65.202600 5.348090 -0.000007 -0.000001 -24.612700 -54.848200 -52.174200 24.328600 0.000019 0.000005 0.287946 21.352000 -0.790664 22.291600 -0.000001 0.000005 49.286100 4.244340 20.643400 12.994500 -0.242716 -4.980390 89.360300 2.256800 -74.170700 -5.348130 -0.000001 -0.000004 -59.079300 1.690850 -5.850640 -24.328900 0.000322 -0.000009 2.284530 7.816990 -16.354300 -22.291500 -0.000108 -0.000004 9.016130 5.223840 2.114240 -2.192480 -6.469440 -0.000000 -174.906000 -6.536590 -0.759929 39.081100 -0.000007 -0.000012 0.005581 -0.030541 10.357600 40.985400 -0.000006 -0.000013 -2.756840 16.086900 -66.114700 11.754300 -0.000000 0.000003 -0.000116 0.169563 -9.699330 -2.192510 6.469440 -0.000001 175.477000 6.270480 -178.740000 -39.081100 -0.002282 -0.040193 0.006891 -0.023816 8.476940 -40.985400 0.000008 0.000006 -7.702470 4.034250 -66.088800 -11.754300 -0.000006 -0.000006 -0.010207 0.272845 -5.487990
0.000000 0.000000 0.000000 0.000000 0.000000 -0.000000 -0.258889 93.392600 0.106283 89.685700 2.265920 -1.367370 15.735700 0.000005 -0.000001 76.949100 87.202600 -67.903800 8.984550 -0.406207 -0.000000 -2.090760 -2.037410 18.053400 16.377300 -0.000001 -0.000001 -3.867500 3.180170 5.348460 6.456720 -0.000001 -0.000000 -5.742300 2.533980 8.513930 12.994200 -0.242716 4.980390 -86.951900 -6.615170 -65.192000 5.348090 -0.000007 -0.000001 -24.517300 -54.878900 -52.032500 24.328600 0.000019 0.000005 0.306919 21.219900 -0.847765 22.291600 -0.000001 0.000005 49.242500 4.245840 20.620600 12.994500 -0.242716 -4.980390 89.376600 2.198270 -74.162600 -5.348130 -0.000001 -0.000004 -59.472800 1.927980 -5.728700 -24.328900 0.000322 -0.000009 2.316610 7.838500 -16.528900 -22.291500 -0.000108 -0.000004 8.896700 5.228040 2.006270 -2.192480 -6.469440 -0.000000 -174.884000 -6.627310 -0.859918 39.081100 -0.000007 -0.000012 0.005727 -0.030952 10.484600 40.985400 -0.000006 -0.000013 -2.724690 16.080300 -66.224900 11.754300 -0.000000 0.000003 -0.000218 0.171218 -9.632110 -2.192510 6.469440 -0.000001 175.508000 6.165310 -178.758000 -39.081100 -0.002282 -0.040193 0.006648 -0.022416 8.390970 -40.985400 0.000008 0.000006 -7.780110 4.029200 -66.026800 -11.754300 -0.000006 -0.000006 -0.010193 0.272745 -5.492070
